<svg width="58" height="58" viewBox="0 0 58 58" fill="none" xmlns="http://www.w3.org/2000/svg">
<path d="M57.918 38.714C57.8 37.546 57.064 32.159 53.387 30.106L46.939 26.882V23C46.939 22.448 46.491 22 45.939 22H39.939C39.425 22 39.017 22.394 38.96 22.893L35.911 21.369C36.006 17.117 36.072 12.497 34.52 8.461C33.569 5.985 31.743 4 28.939 4C26.221 4 24.4 5.87 23.433 8.268C21.79 12.34 21.877 17.057 21.971 21.366L18.918 22.893C18.861 22.394 18.453 22 17.939 22H11.939C11.387 22 10.939 22.448 10.939 23V26.883L4.45096 30.127C2.33996 31.307 1.15996 33.62 0.516959 35.864C0.315959 36.564 -0.902041 40.783 1.29796 39.933L11.505 36.006C11.989 38.001 13.485 40.956 16.036 39.762C18.249 38.726 18.621 35.288 18.814 33.195L22.569 31.75C22.944 35.919 23.475 39.949 24.091 43.311L19.553 45.576C17.818 46.541 16.869 48.457 16.369 50.305C16.165 51.06 15.334 54.276 17.327 53.513L25.797 50.26C26.281 51.637 27.132 54 28.939 54C30.746 54 31.597 51.637 32.081 50.26L40.551 53.513C41.328 53.81 42.128 53.099 41.887 52.289C41.779 51.276 41.167 47.156 38.286 45.555L33.788 43.31C34.404 39.944 34.934 35.915 35.31 31.749L39.065 33.194C39.257 35.287 39.63 38.725 41.843 39.761C44.393 40.955 45.889 38 46.374 36.005L56.581 39.932C56.701 39.979 56.824 40 56.949 40C57.608 40.023 58.102 39.333 57.918 38.714C57.944 38.804 57.799 37.546 57.918 38.714ZM12.939 24H16.703L12.939 25.882V24ZM14.939 38C14.337 38 13.764 36.979 13.389 35.283L16.711 34.007C16.333 36.739 15.572 38 14.939 38ZM42.939 38C42.306 38 41.545 36.739 41.168 34.007L44.49 35.283C44.114 36.979 43.541 38 42.939 38ZM44.939 24V25.882L41.175 24H44.939ZM2.17896 37.452C2.58196 35.553 3.52196 32.937 5.38696 31.895L12.387 28.395L18.387 25.395L22.031 23.573C22.11 25.609 22.232 27.645 22.392 29.676L2.17896 37.452ZM18.243 51.02C18.581 49.67 19.261 48.027 20.486 47.345L24.482 45.351C24.69 46.355 24.917 47.361 25.201 48.347L18.243 51.02ZM28.939 51.973C27.772 51.081 27.387 48.788 27.039 47.491C26.295 44.714 25.824 41.857 25.417 39.012C24.522 32.754 24 26.405 23.944 20.082C23.92 17.429 23.972 14.75 24.436 12.13C24.725 10.502 25.161 8.74 26.2 7.411C27.862 5.286 30.709 5.755 32.046 7.944C33.562 10.427 33.767 13.713 33.889 16.539C34.086 21.102 33.814 25.708 33.433 30.255C33.433 30.255 33.433 30.256 33.433 30.257C33.074 34.65 32.561 39.044 31.745 43.377C31.365 45.396 30.935 47.418 30.275 49.367C30.002 50.175 29.666 51.419 28.939 51.973C29.119 51.835 28.759 51.835 28.939 51.973ZM39.629 51.018L32.677 48.348C32.95 47.358 33.186 46.357 33.396 45.351L37.352 47.325C38.597 48.016 39.286 49.665 39.629 51.018ZM35.487 29.676C35.648 27.645 35.771 25.609 35.848 23.572L39.488 25.392C39.489 25.392 39.49 25.394 39.491 25.394L45.491 28.394C45.492 28.394 45.493 28.394 45.494 28.395L52.45 31.873C54.447 32.989 55.323 35.691 55.691 37.449L35.487 29.676Z" fill="#1F5FAF"/>
<path d="M28.9385 38C28.3865 38 27.9385 38.448 27.9385 39V49C27.9385 50.29 29.9385 50.29 29.9385 49V39C29.9385 38.448 29.4905 38 28.9385 38Z" fill="#1F5FAF"/>
<path d="M28.9389 10.0001C31.0759 10.0001 30.1059 14.7961 32.1559 13.9191C33.4659 13.3591 32.3559 10.7531 31.8899 9.88005C31.3239 8.81905 30.3789 8.07305 29.1519 8.00505C28.0319 7.94305 27.0169 8.40305 26.3479 9.30705C25.7109 10.1661 24.5779 12.6281 25.3189 13.6041C25.7749 14.2041 26.7369 14.0841 27.0339 13.3931C27.3579 12.6391 27.2979 11.7521 27.6589 10.9851C27.9149 10.4411 28.3079 10.0001 28.9389 10.0001Z" fill="#1F5FAF"/>
</svg>
