<svg width="16" height="16" viewBox="0 0 16 16" fill="none" xmlns="http://www.w3.org/2000/svg">
<path d="M7.45312 3.67383C7.21875 3.9082 7.24219 4.25977 7.45312 4.49414L10.2891 7.16602H3.5625C3.23438 7.16602 3 7.42383 3 7.72852V8.47852C3 8.80664 3.23438 9.04102 3.5625 9.04102H10.2891L7.45312 11.7363C7.24219 11.9707 7.24219 12.3223 7.45312 12.5566L7.96875 13.0723C8.20312 13.2832 8.55469 13.2832 8.76562 13.0723L13.3359 8.50195C13.5469 8.29102 13.5469 7.93945 13.3359 7.70508L8.76562 3.1582C8.55469 2.94727 8.20312 2.94727 7.96875 3.1582L7.45312 3.67383Z" fill="#CCCCCC"/>
</svg>
