<svg width="90" height="90" viewBox="0 0 90 90" fill="none" xmlns="http://www.w3.org/2000/svg">
<path d="M21.1696 43.1524C22.5669 43.1524 23.6996 42.1048 23.6996 40.8124C23.6996 39.5201 22.5669 38.4724 21.1696 38.4724C19.7724 38.4724 18.6396 39.5201 18.6396 40.8124C18.6396 42.1048 19.7724 43.1524 21.1696 43.1524Z" fill="#1F5FAF"/>
<path d="M29.7605 43.1524C31.1577 43.1524 32.2905 42.1048 32.2905 40.8124C32.2905 39.5201 31.1577 38.4724 29.7605 38.4724C28.3632 38.4724 27.2305 39.5201 27.2305 40.8124C27.2305 42.1048 28.3632 43.1524 29.7605 43.1524Z" fill="#1F5FAF"/>
<path d="M38.3601 43.1524C39.7574 43.1524 40.8901 42.1048 40.8901 40.8124C40.8901 39.5201 39.7574 38.4724 38.3601 38.4724C36.9628 38.4724 35.8301 39.5201 35.8301 40.8124C35.8301 42.1048 36.9628 43.1524 38.3601 43.1524Z" fill="#1F5FAF"/>
<path d="M46.9499 43.1524C48.3472 43.1524 49.4799 42.1048 49.4799 40.8124C49.4799 39.5201 48.3472 38.4724 46.9499 38.4724C45.5526 38.4724 44.4199 39.5201 44.4199 40.8124C44.4199 42.1048 45.5526 43.1524 46.9499 43.1524Z" fill="#1F5FAF"/>
<path d="M55.5495 43.1524C56.9468 43.1524 58.0795 42.1048 58.0795 40.8124C58.0795 39.5201 56.9468 38.4724 55.5495 38.4724C54.1522 38.4724 53.0195 39.5201 53.0195 40.8124C53.0195 42.1048 54.1522 43.1524 55.5495 43.1524Z" fill="#1F5FAF"/>
<path d="M64.1404 43.1524C65.5376 43.1524 66.6703 42.1048 66.6703 40.8124C66.6703 39.5201 65.5376 38.4724 64.1404 38.4724C62.7431 38.4724 61.6104 39.5201 61.6104 40.8124C61.6104 42.1048 62.7431 43.1524 64.1404 43.1524Z" fill="#1F5FAF"/>
<path d="M89.43 36.6024L81.31 27.4424V18.4424C81.2918 18.025 81.1091 17.6318 80.8017 17.3488C80.4944 17.0658 80.0875 16.9161 79.67 16.9324H72C71.6709 16.923 71.3466 17.0135 71.0699 17.192C70.7933 17.3705 70.5771 17.6286 70.45 17.9324L67 27.4924L65.08 32.7424C64.59 32.7424 64.08 32.7424 63.65 32.7424H21.84C12 32.7024 0 38.4623 0 45.6223V49.4724C0 53.3524 5.41 57.7424 10.74 58.1724C14.69 58.4724 18.04 58.5324 18.44 58.5424H49.71H50.88L57.31 71.8624C57.4505 72.1379 57.6657 72.3684 57.9309 72.5275C58.1961 72.6866 58.5008 72.768 58.81 72.7624H72.33C72.7476 72.787 73.1579 72.645 73.4709 72.3676C73.784 72.0901 73.9743 71.6999 74 71.2823C74.0001 71.0407 73.9381 70.8031 73.82 70.5924L69 55.3124C70.895 54.6744 72.7236 53.8539 74.46 52.8624C76.7096 51.4584 78.5782 49.5212 79.9 47.2224C80.7914 45.0464 81.2695 42.7234 81.31 40.3723V39.2624H88.37C88.7858 39.2759 89.1901 39.125 89.4953 38.8423C89.8004 38.5596 89.9818 38.1679 90 37.7523C89.9981 37.53 89.9459 37.311 89.8471 37.1119C89.7484 36.9127 89.6058 36.7385 89.43 36.6024V36.6024ZM73.19 19.9624H78V26.4724H70.81L73.19 19.9624ZM70.12 69.7624H59.87L53.44 56.4024L50.1 49.4524L55.68 49.0424L63.83 49.5523L65.46 54.7924L70.12 69.7624ZM78 40.3424C77.9956 42.227 77.657 44.0959 77 45.8624C75.9584 47.6672 74.4928 49.1911 72.73 50.3023C71.2755 51.1434 69.7455 51.8465 68.16 52.4024L66.69 47.7024C66.5834 47.3937 66.386 47.1244 66.1237 46.9299C65.8613 46.7354 65.5463 46.6247 65.22 46.6124L55.81 46.0224H55.57L47.57 46.6124C47.314 46.6284 47.0652 46.7036 46.8431 46.832C46.621 46.9604 46.4317 47.1385 46.29 47.3524C46.155 47.556 46.0757 47.7915 46.0599 48.0354C46.0441 48.2792 46.0924 48.523 46.2 48.7424L49.47 55.5323H18.47C18.11 55.5323 14.86 55.4724 11.02 55.1724C6.9 54.8424 3.28 51.3923 3.28 49.4823V45.6223C3.30915 44.6753 3.61508 43.7575 4.16 42.9823C7.66 42.7823 11.39 42.5023 11.39 42.5023L13.85 38.9623L9.7 38.6024C13.492 36.768 17.6382 35.7818 21.85 35.7123H63.65C64.4355 35.7187 65.2201 35.7687 66 35.8624C66.3292 35.9044 66.6635 35.8481 66.9607 35.7003C67.258 35.5526 67.5048 35.3202 67.67 35.0323L67.75 34.8824C67.7817 34.8213 67.8085 34.7577 67.83 34.6924L69.21 30.8624L77.11 38.7523C77.2554 38.8916 77.4248 39.0034 77.61 39.0824L77.78 39.1324C77.8613 39.165 77.9448 39.1918 78.03 39.2123L78 40.3424ZM79.64 36.2323H79L72.25 29.4924H78.86L84.86 36.2323H79.64Z" fill="#1F5FAF"/>
</svg>
