<svg width="44" height="44" viewBox="0 0 44 44" fill="none" xmlns="http://www.w3.org/2000/svg">
<rect width="44" height="44" rx="22" fill="#AFD170" fill-opacity="0.5"/>
<path d="M39.2939 18.8508C39.2172 18.6485 39.0416 18.4995 38.8297 18.4568L35.7792 17.84V15.144C35.7792 14.7962 35.4972 14.5147 35.1498 14.5147H33.6275V13.3775C33.6275 13.2557 33.5915 13.1433 33.5315 13.0473H36.1049C36.4524 13.0473 36.7343 12.7658 36.7343 12.418C36.7343 12.0703 36.4524 11.7887 36.1049 11.7887H30.1171C29.7697 11.7887 29.4879 12.0703 29.4879 12.418C29.4879 12.7658 29.7697 13.0473 30.1171 13.0473H32.4646C32.4046 13.1433 32.3686 13.2563 32.3686 13.3775V14.5147H30.8436C30.4962 14.5147 30.2143 14.7962 30.2143 15.144V16.715L27.7254 16.2118L28.0398 13.7873C28.2602 11.0804 27.7105 8.98645 26.405 7.56305C25.3572 6.42003 23.8406 5.78543 22.1042 5.77637C20.4166 5.77637 18.8194 6.48763 17.72 7.72842C16.7912 8.77628 15.7659 10.6988 16.1543 13.9074L16.4414 16.2967L13.6997 16.8204V15.1403C13.6997 14.7925 13.4178 14.511 13.0704 14.511H11.5453V13.3718C11.5453 13.2509 11.5096 13.1394 11.4505 13.0437H14.0228C14.3702 13.0437 14.6521 12.7621 14.6521 12.4143C14.6521 12.0666 14.3702 11.785 14.0228 11.785L8.03637 11.7845C7.68893 11.7845 7.40706 12.066 7.40706 12.4138C7.40706 12.7615 7.68893 13.0431 8.03637 13.0431H10.3803C10.3212 13.1388 10.2855 13.2503 10.2855 13.3712V14.5104H8.76317C8.41572 14.5104 8.13385 14.7919 8.13385 15.1397V17.8824L5.13163 18.4554C4.9165 18.4967 4.73823 18.6466 4.66037 18.8512L2.50668 24.5475C2.43379 24.741 2.46043 24.9579 2.57751 25.1279C2.69488 25.298 2.88836 25.3996 3.09531 25.3996H17.5347L18.3716 32.3663L13.1204 33.6075C12.9018 33.6596 12.7268 33.8242 12.6624 34.0393L11.6704 37.3442C11.6131 37.5348 11.6494 37.7402 11.7673 37.9003C11.8856 38.0598 12.0729 38.1541 12.2714 38.1547L19.4446 38.174C20.323 38.7305 21.1142 38.9945 21.9189 38.9945C22.7321 38.9945 23.5571 38.731 24.4979 38.1746L31.6709 38.1725C31.8702 38.1725 32.0572 38.078 32.1761 37.9188C32.2944 37.7592 32.331 37.5523 32.2736 37.3621L31.2816 34.059C31.2175 33.844 31.0434 33.6798 30.825 33.628L25.6301 32.3884L26.5358 25.4004L40.8612 25.3995C41.0682 25.3995 41.2617 25.298 41.3791 25.1279C41.4964 24.9576 41.5231 24.7407 41.4499 24.5472L39.2939 18.8508ZM31.4725 15.7736H34.5199V17.5855L31.4725 16.9693V15.7736ZM9.39228 15.7689H12.4396V17.06L9.39228 17.6419V15.7689ZM4.00564 24.1411L5.71296 19.6264L16.5909 17.5494L17.3826 24.1411H4.00564ZM13.7625 34.7492L18.5219 33.6243L18.9167 36.9137L13.1177 36.8982L13.7625 34.7492ZM20.2163 37.1754L17.4032 13.7569C17.1401 11.5851 17.5753 9.78903 18.6612 8.56373C19.5217 7.59284 20.7765 7.0355 22.1278 7.0355C23.4795 7.04311 24.6683 7.53279 25.4768 8.41439C26.5353 9.5688 26.9752 11.3426 26.7879 13.6558L23.7417 37.1605C23.0523 37.5521 22.4679 37.7356 21.9175 37.7356C21.3813 37.7359 20.8483 37.5618 20.2163 37.1757V37.1754ZM30.1794 34.7679L30.8239 36.9135L25.0433 36.9152L25.4671 33.643L30.1794 34.7679ZM26.6982 24.1411L27.5635 17.4636L30.7074 18.0994C30.7141 18.1006 30.72 18.1021 30.7267 18.1032L35.0157 18.9702C35.0206 18.971 35.0253 18.9722 35.0303 18.9731L38.2392 19.6217L39.9494 24.1405L26.6985 24.1408L26.6982 24.1411Z" fill="black"/>
<path d="M24.6304 12.286C24.6748 12.286 24.7205 12.281 24.7659 12.2708C25.1058 12.1961 25.3197 11.8604 25.2457 11.5208C24.9318 10.0951 23.7131 9.1189 22.2126 9.092C20.7172 9.07619 19.4788 9.99291 19.1021 11.4553C19.0151 11.7919 19.2174 12.1349 19.5543 12.2218C19.8891 12.3073 20.234 12.1059 20.3206 11.7696C20.5957 10.7033 21.4809 10.3327 22.1901 10.3505C22.8891 10.3631 23.7868 10.748 24.0162 11.7913C24.0812 12.0854 24.3412 12.2859 24.6304 12.2859V12.286Z" fill="black"/>
<path d="M9.29621 31.0603V27.5244C9.29621 27.1766 9.01434 26.895 8.6669 26.895C8.31947 26.895 8.0376 27.1766 8.0376 27.5244V31.0603C8.0376 31.408 8.31947 31.6896 8.6669 31.6896C9.01434 31.6898 9.29621 31.4083 9.29621 31.0603Z" fill="black"/>
<path d="M35.554 31.6329V28.0949C35.554 27.7472 35.2722 27.4656 34.9247 27.4656C34.5773 27.4656 34.2954 27.7472 34.2954 28.0949V31.6329C34.2954 31.9806 34.5773 32.2622 34.9247 32.2622C35.2719 32.2622 35.554 31.9806 35.554 31.6329Z" fill="black"/>
</svg>
