<svg width="44" height="44" viewBox="0 0 44 44" fill="none" xmlns="http://www.w3.org/2000/svg">
<rect width="44" height="44" rx="22" fill="#F58A82" fill-opacity="0.5"/>
<g clip-path="url(#clip0_615_66)">
<path d="M41.9735 27.9589C41.8922 27.1528 41.3841 23.4349 38.8464 22.0179L34.396 19.793V17.1136C34.396 16.7328 34.0867 16.4235 33.7059 16.4235H29.5648C29.2102 16.4235 28.9286 16.6955 28.8891 17.0397L26.7847 15.9878C26.8503 13.0533 26.8959 9.86465 25.8246 7.07864C25.1683 5.36985 23.9081 4 21.9729 4C20.0971 4 18.8403 5.29066 18.1729 6.94558C17.0391 9.75588 17.0992 13.0114 17.1639 15.9856L15.0567 17.0394C15.0172 16.6952 14.7356 16.4231 14.381 16.4231H10.24C9.85912 16.4231 9.54978 16.7325 9.54978 17.1133V19.7933L5.07194 22.0324C3.61485 22.8467 2.80053 24.443 2.35684 25.9919C2.21819 26.475 1.37735 29.387 2.89573 28.8003L9.94037 26.0902C10.2744 27.4671 11.3068 29.5065 13.0674 28.6823C14.5947 27.9672 14.8514 25.5945 14.9849 24.15L17.5764 23.1526C17.8352 26.03 18.2015 28.8114 18.6267 31.1318L15.4947 32.6951C14.2974 33.3612 13.6424 34.6833 13.2973 35.9589C13.1565 36.48 12.5831 38.6996 13.9585 38.173L19.8043 35.9278C20.1383 36.8777 20.7256 38.5086 21.9728 38.5086C23.22 38.5086 23.8073 36.8777 24.1413 35.9272L29.9871 38.1724C30.5232 38.3773 31.0753 37.8868 30.9092 37.3275C30.8346 36.6284 30.4122 33.7849 28.424 32.68L25.3194 31.1304C25.7446 28.8073 26.1103 26.0265 26.3698 23.1512L28.9613 24.1486C29.0938 25.593 29.3513 27.9659 30.8787 28.681C32.6386 29.5052 33.6711 27.4655 34.0058 26.0889L41.0504 28.799C41.1333 28.8316 41.218 28.8461 41.3043 28.8461C41.7594 28.8621 42.1002 28.3858 41.9732 27.9584C41.8909 27.1524 41.9911 28.0207 41.9732 27.9584L41.9735 27.9589ZM10.9299 17.8035H13.5277L10.9299 19.1025V17.8035ZM12.3103 27.4659C11.895 27.4659 11.4994 26.7612 11.2406 25.5907L13.5332 24.7102C13.2725 26.5955 12.7472 27.466 12.3103 27.466V27.4659ZM31.6351 27.4659C31.1982 27.4659 30.6729 26.5955 30.4128 24.7101L32.7055 25.5907C32.446 26.7612 32.0504 27.4658 31.6351 27.4658V27.4659ZM33.0155 17.8035V19.1025L30.4177 17.8035H33.0155ZM3.5037 27.0873C3.78192 25.7766 4.4305 23.971 5.71777 23.2519L14.69 18.7658L17.2052 17.5084C17.2597 18.9137 17.3438 20.3187 17.4544 21.7206L3.5037 27.0873ZM14.5906 36.4515C14.8239 35.5198 15.2931 34.3859 16.1386 33.9152L18.8965 32.5388C19.0401 33.2318 19.1966 33.926 19.3929 34.6066L14.5906 36.4515ZM21.9727 37.1093C21.1673 36.4937 20.9017 34.9113 20.6614 34.0159C20.1478 32.0994 19.8227 30.1275 19.542 28.1639C18.9243 23.8448 18.5641 19.463 18.5252 15.0988C18.5086 13.2676 18.5446 11.4187 18.8648 9.61069C19.0641 8.48701 19.3652 7.27089 20.0822 6.35363C21.2293 4.88699 23.1941 5.21086 24.1169 6.72152C25.1632 8.43527 25.3047 10.7032 25.3888 12.6536C25.5246 15.8028 25.337 18.9819 25.0742 22.1204V22.1216C24.8264 25.1535 24.4724 28.1862 23.9092 31.1767C23.647 32.5703 23.3502 33.9657 22.8946 35.3109C22.7063 35.8683 22.4743 36.727 21.9727 37.1094C21.8485 37.0139 22.0968 37.0139 21.9727 37.1094V37.1093ZM29.3508 36.45L24.5528 34.6072C24.7414 33.9238 24.9041 33.233 25.0492 32.5388L27.7794 33.9012C28.6384 34.3782 29.1138 35.5164 29.3508 36.4499V36.45ZM26.4921 21.7205C26.6033 20.3189 26.6881 18.9136 26.7414 17.5077L29.2538 18.7639C29.2544 18.7639 29.255 18.7651 29.2559 18.7651L33.3969 20.8357C33.3976 20.8357 33.3982 20.8357 33.3991 20.8363L38.1998 23.2368C39.578 24.0071 40.1828 25.8718 40.4366 27.0851L26.4921 21.7205Z" fill="black"/>
<path d="M21.9727 27.4658C21.5919 27.4658 21.2825 27.7751 21.2825 28.156V35.0577C21.2825 35.9481 22.6629 35.9481 22.6629 35.0577V28.156C22.6629 27.7751 22.3535 27.4658 21.9727 27.4658Z" fill="black"/>
<path d="M21.9727 8.14097C23.4476 8.14097 22.7781 11.451 24.1929 10.8459C25.0969 10.4595 24.3309 8.66077 24.0093 8.05839C23.6186 7.326 22.9663 6.81119 22.1196 6.76433C21.3466 6.7215 20.6462 7.03917 20.1844 7.66282C19.7447 8.25562 18.9627 9.9549 19.4742 10.6284C19.7888 11.0425 20.4527 10.9596 20.658 10.4827C20.8817 9.96228 20.8401 9.3501 21.0893 8.82075C21.2659 8.44547 21.5373 8.14106 21.9727 8.14106V8.14097Z" fill="black"/>
</g>
<defs>
<clipPath id="clip0_615_66">
<rect width="40" height="35" fill="white" transform="translate(2 4)"/>
</clipPath>
</defs>
</svg>
