<svg width="44" height="44" viewBox="0 0 44 44" fill="none" xmlns="http://www.w3.org/2000/svg">
<rect width="44" height="44" rx="22" fill="#58B0BC" fill-opacity="0.5"/>
<path d="M6.27524 27.9775H4.98222C4.56769 27.9775 4.23169 27.6415 4.23169 27.227C4.23169 26.8128 4.56769 26.4768 4.98222 26.4768H6.27524C6.68976 26.4768 7.02577 26.8128 7.02577 27.227C7.02577 27.6415 6.68976 27.9775 6.27524 27.9775Z" fill="black"/>
<path d="M30.1531 27.9775H12.881C12.4665 27.9775 12.1305 27.6415 12.1305 27.227C12.1305 26.8128 12.4665 26.4768 12.881 26.4768H30.1531C30.5677 26.4768 30.9037 26.8128 30.9037 27.227C30.9037 27.6415 30.5677 27.9775 30.1531 27.9775Z" fill="black"/>
<path d="M40.3137 27.9775H36.7592C36.3447 27.9775 36.0087 27.6415 36.0087 27.227C36.0087 26.8128 36.3447 26.4768 36.7592 26.4768H39.5631V24.8167C39.5644 23.6707 39.1097 22.5714 38.2992 21.761C37.4888 20.9507 36.3895 20.4959 35.2435 20.4971H3.84342C3.4289 20.4971 3.0929 20.1611 3.0929 19.7466C3.0929 19.3321 3.4289 18.9961 3.84342 18.9961H35.2435C36.7874 18.9948 38.2688 19.6079 39.3606 20.6997C40.4523 21.7915 41.0655 23.2729 41.0642 24.8167V27.227C41.0642 27.4263 40.985 27.617 40.8443 27.7577C40.7036 27.8987 40.5126 27.9775 40.3137 27.9775Z" fill="black"/>
<path d="M6.27528 27.9775H4.98687C4.18071 27.9775 3.42825 27.6248 2.86876 26.9836C2.64171 26.7225 2.45718 26.4267 2.32174 26.1081C1.94581 25.2143 1.94581 24.2069 2.32174 23.3131C2.54912 22.77 2.92242 22.3005 3.40076 21.9572C3.73873 21.7174 4.20724 21.7972 4.44704 22.1352C4.68686 22.4735 4.60703 22.9421 4.26873 23.1819C4.01812 23.3651 3.82313 23.6146 3.706 23.9023C3.49007 24.4192 3.49007 25.0012 3.706 25.5185C3.77928 25.6925 3.87939 25.8542 4.00274 25.9975C4.27298 26.3066 4.62372 26.4768 4.98787 26.4768H6.27629C6.69082 26.4768 7.02682 26.8128 7.02682 27.2269C7.02682 27.6415 6.69082 27.9775 6.27629 27.9775H6.27528Z" fill="black"/>
<path d="M3.84386 20.4972C3.54451 20.4965 3.27393 20.3176 3.15616 20.0424C3.03804 19.7673 3.09498 19.4483 3.30077 19.2307L8.34153 13.9358C8.48287 13.7866 8.6795 13.7015 8.88497 13.7012H25.6328C25.833 13.7012 26.0247 13.781 26.1657 13.923L31.4189 19.2159V19.2163C31.711 19.5104 31.709 19.9858 31.4146 20.2776C31.1204 20.5695 30.645 20.5675 30.3532 20.2734L25.3213 15.2042H9.20671L4.38581 20.2639C4.24447 20.4124 4.04883 20.4968 3.84369 20.4972L3.84386 20.4972Z" fill="black"/>
<path d="M5.84218 23.319H3.85038C3.43585 23.319 3.09985 22.983 3.09985 22.5684V19.7459C3.09985 19.3314 3.43585 18.9954 3.85038 18.9954H5.84218C6.41407 18.9967 6.96208 19.2244 7.36645 19.6284C7.77083 20.0328 7.99855 20.5812 7.99985 21.153V21.1583C7.99953 21.7305 7.77214 22.2795 7.36776 22.6846C6.96338 23.0896 6.4147 23.318 5.84215 23.319H5.84218ZM4.60059 21.8178H5.84218V21.8182C6.20468 21.8182 6.49881 21.524 6.49881 21.1615V21.1563C6.49717 20.7941 6.20435 20.501 5.84218 20.4997H4.60059V21.8178Z" fill="black"/>
<path d="M40.1679 24.3535H40.1519C36.9651 24.2867 34.4234 22.2711 34.3654 19.7639C34.3608 19.565 34.4355 19.3723 34.5729 19.2283C34.7106 19.0841 34.8994 19.0006 35.0987 18.9961C35.5131 18.9866 35.8568 19.3147 35.8665 19.7292C35.8848 20.5131 36.3141 21.264 37.0751 21.8447C37.895 22.4703 38.9982 22.8299 40.1832 22.8531C40.5977 22.857 40.9305 23.1966 40.9262 23.6108C40.9223 24.0254 40.5827 24.3581 40.1685 24.3538L40.1679 24.3535Z" fill="black"/>
<path d="M16.5538 27.9775C16.1392 27.9775 15.8032 27.6415 15.8032 27.227V14.4534C15.8032 14.0389 16.1392 13.7029 16.5538 13.7029C16.9683 13.7029 17.3043 14.0389 17.3043 14.4534V27.227C17.3043 27.4263 17.2252 27.617 17.0845 27.7577C16.9438 27.8987 16.7527 27.9775 16.5538 27.9775Z" fill="black"/>
<path d="M22.1294 23.319H19.1185C18.7039 23.319 18.3679 22.983 18.3679 22.5686C18.3679 22.1544 18.7039 21.8184 19.1185 21.8184H22.1298H22.1294C22.5439 21.8184 22.8799 22.1544 22.8799 22.5686C22.8799 22.983 22.5439 23.319 22.1294 23.319Z" fill="black"/>
<path d="M9.57854 30.9886C8.49985 30.9886 7.46538 30.56 6.70237 29.7974C5.93972 29.0343 5.51111 27.9999 5.51111 26.9212C5.51111 25.8424 5.9397 24.8077 6.70237 24.045C7.46533 23.2821 8.49985 22.8538 9.57854 22.8538C10.6572 22.8538 11.6917 23.2821 12.4547 24.045C13.2173 24.8076 13.646 25.8424 13.646 26.9212C13.6446 27.9995 13.2158 29.0334 12.4534 29.7957C11.6908 30.5583 10.657 30.9872 9.57862 30.9885L9.57854 30.9886ZM9.57854 24.3545C8.89803 24.3545 8.24498 24.6252 7.76372 25.1064C7.28244 25.5877 7.01188 26.2404 7.01188 26.9212C7.01188 27.6018 7.28244 28.2547 7.76372 28.736C8.24499 29.2173 8.89803 29.4875 9.57854 29.4875C10.2594 29.4875 10.9121 29.2173 11.3934 28.736C11.8746 28.2547 12.1452 27.6018 12.1452 26.9212C12.1442 26.2407 11.8736 25.5883 11.3927 25.107C10.9114 24.6261 10.2591 24.3552 9.57856 24.3545H9.57854Z" fill="black"/>
<path d="M33.4565 30.9886C32.3778 30.9886 31.343 30.56 30.5804 29.7974C29.8173 29.0343 29.389 27.9999 29.389 26.9212C29.389 25.8424 29.8173 24.8077 30.5804 24.045C31.343 23.2821 32.3778 22.8538 33.4565 22.8538C34.5352 22.8538 35.5696 23.2821 36.3327 24.045C37.0953 24.8076 37.524 25.8424 37.524 26.9212C37.5226 27.9995 37.0937 29.0334 36.3311 29.7957C35.5687 30.5583 34.5349 30.9872 33.4566 30.9885L33.4565 30.9886ZM33.4565 24.3545C32.7757 24.3545 32.1229 24.6252 31.6417 25.1064C31.1605 25.5877 30.8898 26.2404 30.8898 26.9212C30.8898 27.6018 31.1605 28.2547 31.6417 28.736C32.123 29.2173 32.7757 29.4875 33.4565 29.4875C34.137 29.4875 34.79 29.2173 35.2713 28.736C35.7526 28.2547 36.0228 27.6018 36.0228 26.9212C36.0222 26.2407 35.7516 25.5883 35.2703 25.107C34.7894 24.6261 34.137 24.3552 33.4566 24.3545H33.4565Z" fill="black"/>
<path d="M6.27524 27.9775H4.98222C4.56769 27.9775 4.23169 27.6415 4.23169 27.227C4.23169 26.8128 4.56769 26.4768 4.98222 26.4768H6.27524C6.68976 26.4768 7.02577 26.8128 7.02577 27.227C7.02577 27.6415 6.68976 27.9775 6.27524 27.9775Z" fill="black"/>
</svg>
