<svg width="19" height="16" viewBox="0 0 19 16" fill="none" xmlns="http://www.w3.org/2000/svg">
<path d="M8.46875 1.5L11.625 7H15.25C16.0625 7 17.1875 7.625 17.4688 8C17.1875 8.40625 16.0625 9 15.25 9H11.625L8.46875 14.5H7.3125L8.875 9H5.25L4.125 10.5H2.8125L3.5625 8L2.8125 5.5H4.125L5.25 7H8.875L7.3125 1.5H8.46875ZM9.0625 0H6C5.65625 0 5.40625 0.34375 5.5 0.65625L6.90625 5.5H6L5 4.21875C4.90625 4.09375 4.78125 4 4.625 4H1.5C1.15625 4 0.90625 4.3125 1 4.625L2 8L1 11.4062C0.90625 11.7188 1.15625 12 1.5 12H4.625C4.78125 12 4.90625 11.9375 5 11.8125L6 10.5H6.90625L5.5 15.375C5.40625 15.6875 5.65625 16 6 16H9.0625C9.21875 16 9.40625 15.9062 9.5 15.75L12.5 10.5H15.25C16.625 10.5 19 9.40625 19 8C19 6.625 16.625 5.5 15.25 5.5H12.5L9.5 0.28125C9.40625 0.125 9.21875 0 9.0625 0Z" fill="#447EDF"/>
</svg>
