<?xml version="1.0" encoding="UTF-8"?>
<svg width="56px" height="28px" viewBox="0 0 56 28" version="1.1" xmlns="http://www.w3.org/2000/svg" xmlns:xlink="http://www.w3.org/1999/xlink">
    <title>Rad_2</title>
    <defs>
        <path d="M28,0 C43.3093333,0 55.7489867,12.2865601 55.9962488,27.5369688 L56,28 L41,28 L41,28 C41,20.8202983 35.1797017,15 28,15 C20.8202983,15 15,20.8202983 15,28 L0,28 L0.00375120002,27.5369688 C0.251013335,12.2865601 12.6906667,0 28,0 Z" id="path-1"></path>
    </defs>
    <g id="Rad_2" stroke="none" stroke-width="1" fill="none" fill-rule="evenodd">
        <rect fill="#FFFFFF" x="0" y="0" width="56" height="28"></rect>
        <g id="Group">
            <mask id="mask-2" fill="white">
                <use xlink:href="#path-1"></use>
            </mask>
            <g id="Combined-Shape"></g>
            <path d="M7.38252022,9.05459936 L18.2485806,19.4026791 C16.2267448,21.694162 15,24.7038202 15,28 L0,28 L0.00375120002,27.5369688 C0.119263565,20.4125024 2.89568854,13.9348773 7.38252022,9.05459936 Z" id="Path" fill="#4881EB" mask="url(#mask-2)"></path>
            <path d="M26.9755971,0.0183913738 L26.9753711,15.0397866 C24.2121793,15.2552303 21.6914994,16.3346026 19.6832014,18.0080336 L8.78757173,7.63123071 C13.5704375,3.11825128 19.9424237,0.271327125 26.9755971,0.0183913738 Z" id="Path" fill="#4881EB" mask="url(#mask-2)"></path>
            <path d="M55.9962488,27.5369688 L56,28 L41,28 C41,24.7038202 39.7732552,21.694162 37.7514194,19.4026791 L48.6174798,9.05459936 C53.1043115,13.9348773 55.8807364,20.4125024 55.9962488,27.5369688 Z" id="Path" fill="#DDDDDD" mask="url(#mask-2)"></path>
            <path d="M47.2124283,7.63123071 L36.3167986,18.0080336 C34.3085006,16.3346026 31.7878207,15.2552303 29.0246289,15.0397866 L29.0244029,0.0183913738 C36.0575763,0.271327125 42.4295625,3.11825128 47.2124283,7.63123071 Z" id="Path" fill="#DDDDDD" mask="url(#mask-2)"></path>
            <path d="M27.2758621,28 L7,8.68869424 L8.44827586,7.30931526 L26.975,24.954 L26.9759143,0 L29.0240857,0 L29.024,24.954 L47.5517241,7.30931526 L49,8.68869424 L28.7241379,28 L28,27.31 L27.2758621,28 Z" id="Combined-Shape-Copy-2" fill="#FFFFFF" mask="url(#mask-2)"></path>
        </g>
    </g>
</svg>