<?xml version="1.0" encoding="UTF-8"?>
<svg width="64px" height="64px" viewBox="0 0 64 64" version="1.1" xmlns="http://www.w3.org/2000/svg" xmlns:xlink="http://www.w3.org/1999/xlink">
    <title>Rating_2</title>
    <g id="Page-1" stroke="none" stroke-width="1" fill="none" fill-rule="evenodd">
        <g id="Profile" transform="translate(-1092.000000, -319.000000)">
            <g id="Rating_2" transform="translate(1092.000000, 319.000000)">
                <path d="M30.6070386,60.7472209 L30.6070386,63.9999801 C14.0254162,63.2903733 0.709371696,49.9741808 0,33.392498 L3.25275703,33.392498 C3.95717529,48.1791756 15.8204221,60.0425695 30.6070386,60.7472209 Z" id="3" fill="#6FC059"></path>
                <path d="M33.392498,64 L33.392498,60.747243 C48.1793301,60.0428174 60.0428174,48.1793301 60.747243,33.392498 L64,33.392498 C63.2906217,49.9743354 49.9743354,63.2906217 33.392498,64 Z" id="2" fill="#6FC059"></path>
                <path d="M63.9999801,30.6070386 L60.7472209,30.6070386 C60.0425695,15.8204221 48.1791756,3.95717529 33.392498,3.25275703 L33.392498,0 C49.9741808,0.709371696 63.2903733,14.0254162 63.9999801,30.6070386 Z" id="1" fill="#6FC059"></path>
                <path d="M30.6070386,1.98501105e-05 L30.6070386,3.25277911 C15.8205765,3.95742315 3.95742315,15.8205765 3.25277911,30.6070386 L1.98501106e-05,30.6070386 C0.709620067,14.0255708 14.0255708,0.709620067 30.6070386,1.98501105e-05 Z" id="4" fill="#B4BDCE"></path>
            </g>
        </g>
    </g>
</svg>