<svg width="17" height="13" viewBox="0 0 17 13" fill="none" xmlns="http://www.w3.org/2000/svg">
<path d="M5.625 12.5C5.8125 12.5 6 12.3438 6 12.125V10.875C6 10.6875 5.8125 10.5 5.625 10.5H3C2.4375 10.5 2 10.0625 2 9.5V3.5C2 2.96875 2.4375 2.5 3 2.5H5.625C5.8125 2.5 6 2.34375 6 2.125V0.875C6 0.6875 5.8125 0.5 5.625 0.5H3C1.34375 0.5 0 1.84375 0 3.5V9.5C0 11.1562 1.34375 12.5 3 12.5H5.625ZM9.28125 3.03125L11.7188 5.25H5.75C5.3125 5.25 5 5.59375 5 6V7C5 7.4375 5.3125 7.75 5.75 7.75H11.7188L9.28125 10C8.96875 10.2812 8.96875 10.7812 9.28125 11.0625L9.96875 11.75C10.25 12.0312 10.7188 12.0625 11 11.75L15.75 7.03125C16.0625 6.75 16.0625 6.28125 15.75 5.96875L11.0312 1.28125C10.7188 0.96875 10.25 0.96875 9.96875 1.28125L9.28125 1.96875C8.96875 2.25 8.96875 2.75 9.28125 3.03125Z" fill="#1D233F"/>
</svg>
